<?xml version="1.0" encoding="UTF-8" standalone="no"?>
<svg
   xmlns:dc="http://purl.org/dc/elements/1.1/"
   xmlns:cc="http://creativecommons.org/ns#"
   xmlns:rdf="http://www.w3.org/1999/02/22-rdf-syntax-ns#"
   xmlns:svg="http://www.w3.org/2000/svg"
   xmlns="http://www.w3.org/2000/svg"
   xmlns:xlink="http://www.w3.org/1999/xlink"
   version="1.1"
   id="svg2"
   viewBox="0 0 891.01078 41.383814"
   height="11.679432mm"
   width="251.46304mm">
  <title
     id="title3349">Flowers Ornamental Border</title>
  <metadata
     id="metadata7">
    <rdf:RDF>
      <cc:Work
         rdf:about="">
        <dc:format>image/svg+xml</dc:format>
        <dc:type
           rdf:resource="http://purl.org/dc/dcmitype/StillImage" />
        <dc:title>Flowers Ornamental Border</dc:title>
        <dc:source>Caslon, William. A Specimen of Printing Types. London: Printed by Galabin and Baker, 1785. https://archive.org/details/specimenofprinti00caslrich.
 Small Pica Flowers #17 on p. 91</dc:source>
        <dc:date>2016-03-07</dc:date>
        <dc:creator>
          <cc:Agent>
            <dc:title>mazeo</dc:title>
          </cc:Agent>
        </dc:creator>
        <dc:publisher>
          <cc:Agent>
            <dc:title>openclipart.org</dc:title>
          </cc:Agent>
        </dc:publisher>
        <dc:language>en</dc:language>
        <dc:subject>
          <rdf:Bag>
            <rdf:li>border</rdf:li>
            <rdf:li>ornament</rdf:li>
            <rdf:li>flowers</rdf:li>
            <rdf:li>divider</rdf:li>
          </rdf:Bag>
        </dc:subject>
        <dc:description>An ornamental border of flowers.</dc:description>
        <dc:contributor>
          <cc:Agent>
            <dc:title>mazeo, William Caslon</dc:title>
          </cc:Agent>
        </dc:contributor>
        <cc:license
           rdf:resource="http://creativecommons.org/publicdomain/zero/1.0/" />
      </cc:Work>
      <cc:License
         rdf:about="http://creativecommons.org/publicdomain/zero/1.0/">
        <cc:permits
           rdf:resource="http://creativecommons.org/ns#Reproduction" />
        <cc:permits
           rdf:resource="http://creativecommons.org/ns#Distribution" />
        <cc:permits
           rdf:resource="http://creativecommons.org/ns#DerivativeWorks" />
      </cc:License>
    </rdf:RDF>
  </metadata>
  <g
     transform="translate(-47.245691,-567.75324)"
     id="layer1">
    <g
       id="g4278">
      <path
         style="fill:#000000;stroke:none;stroke-opacity:1;stroke-width:0;stroke-miterlimit:4;stroke-dasharray:none"
         d="m 47.367405,569.93132 c 0,1.739 4.151973,2.82786 8.376531,2.19677 c 0.530226,-0.0792 2.505712,0.44213 4.38997,1.15852 c 3.387793,1.28803 3.996308,3.80244 1.38461,5.72122 c -0.741248,0.54459 0.01682,0.99944 1.684656,1.01079 c 3.813393,0.026 3.979572,2.72074 0.228283,3.70173 c -1.932487,0.50535 -2.600085,1.51344 -2.147768,3.24313 c 0.360988,1.38042 0.106634,2.50985 -0.565214,2.50985 c -0.671845,0 -1.221544,1.21296 -1.221544,2.69545 c 0,3.23869 1.741938,3.45643 4.620765,0.5776 c 1.925328,-1.92532 2.11786,-1.91511 2.11786,0.11231 c 0,3.19025 3.159045,1.7076 4.005999,-1.88016 c 1.01488,-4.29912 3.330097,-4.19072 3.83294,0.17946 c 0.442302,3.844 2.271283,4.95772 3.3199,2.02159 c 1.147916,-3.21415 2.667826,0.27308 3.501744,8.03426 c 0.608547,5.66362 1.392233,7.8015 2.859839,7.8015 c 3.18833,0 3.272008,-8.16422 0.148392,-14.47761 c -2.515858,-5.085 -2.556635,-5.65112 -0.514574,-7.14431 c 2.001576,-1.46359 1.930439,-1.7129 -0.729594,-2.55717 c -3.409117,-1.082 -4.059195,-5.1136 -0.728699,-4.51914 c 1.220286,0.2178 2.483782,-0.36209 2.807766,-1.28864 c 0.323981,-0.92657 -0.371197,-1.68466 -1.544839,-1.68466 c -1.173652,0 -2.133902,-0.60648 -2.133902,-1.34773 c 0,-0.74124 0.909715,-1.34772 2.021589,-1.34772 c 1.265361,0 2.021586,-1.27813 2.021586,-3.41674 c 0,-2.9991 -0.329471,-3.2404 -2.69545,-1.97416 c -1.482496,0.7934 -2.69545,2.02769 -2.69545,2.74286 c 0,0.71518 -0.606475,1.30031 -1.347725,1.30031 c -0.741247,0 -1.19611,-0.68229 -1.010793,-1.51619 c 0.185308,-0.8339 -0.42117,-1.79416 -1.347725,-2.1339 c -1.072378,-0.39321 -1.684656,0.64765 -1.684656,2.86392 c 0,4.4376 -2.373633,4.50353 -4.043173,0.1123 c -1.358691,-3.57362 -3.465163,-4.42947 -4.352224,-1.7683 c -0.378476,1.13543 -1.478132,0.93948 -3.781502,-0.67386 c -4.201116,-2.94258 -14.777598,-3.12386 -14.777598,-0.25329 z m 28.048635,11.80808 c 0.311454,1.61727 -0.414313,2.34303 -2.343046,2.34303 c -1.928726,0 -2.794265,-0.86554 -2.794265,-2.79426 c 0,-3.45375 4.460743,-3.06194 5.137311,0.45123 z"
         id="path17657" />
      <use
         x="0"
         y="0"
         xlink:href="#path17657"
         transform="matrix(0,1,-1,0,695.99992,521.66248)"
         id="use17819"
         style="fill:#000000;stroke:none"
         width="100%"
         height="100%" />
    </g>
    <use
       style="stroke:none"
       id="use4284"
       stroke="#000000"
       fill="#000000"
       transform="translate(80.757535,0)"
       xlink:href="#g4278"
       y="0"
       x="0" />
    <use
       style="stroke:none"
       id="use4286"
       stroke="#000000"
       fill="#000000"
       transform="translate(161.51507,0)"
       xlink:href="#g4278"
       y="0"
       x="0" />
    <use
       style="stroke:none"
       id="use4288"
       stroke="#000000"
       fill="#000000"
       transform="translate(242.27261,0)"
       xlink:href="#g4278"
       y="0"
       x="0" />
    <use
       style="stroke:none"
       id="use4290"
       stroke="#000000"
       fill="#000000"
       transform="translate(323.03014,0)"
       xlink:href="#g4278"
       y="0"
       x="0" />
    <use
       style="stroke:none"
       id="use4292"
       stroke="#000000"
       fill="#000000"
       transform="translate(403.78768,0)"
       xlink:href="#g4278"
       y="0"
       x="0" />
    <use
       style="stroke:none"
       id="use4294"
       stroke="#000000"
       fill="#000000"
       transform="translate(484.54521,0)"
       xlink:href="#g4278"
       y="0"
       x="0" />
    <use
       style="stroke:none"
       id="use4296"
       stroke="#000000"
       fill="#000000"
       transform="translate(565.30275,0)"
       xlink:href="#g4278"
       y="0"
       x="0" />
    <use
       style="stroke:none"
       id="use4298"
       stroke="#000000"
       fill="#000000"
       transform="translate(646.06028,0)"
       xlink:href="#g4278"
       y="0"
       x="0" />
    <use
       style="stroke:none"
       id="use4300"
       stroke="#000000"
       fill="#000000"
       transform="translate(726.81782,0)"
       xlink:href="#g4278"
       y="0"
       x="0" />
    <use
       style="stroke:none"
       id="use4302"
       stroke="#000000"
       fill="#000000"
       transform="translate(807.57535,0)"
       xlink:href="#g4278"
       y="0"
       x="0" />
  </g>
</svg>
